<svg width="20" height="20" viewBox="0 0 20 20" fill="none" xmlns="http://www.w3.org/2000/svg">
<path d="M14.7181 0H5.28194C2.32 0 0 2.32 0 5.28194V14.7181C0 17.68 2.32 20 5.28194 20H14.7181C17.68 20 20 17.68 20 14.7181V5.28194C20 2.32 17.6794 0 14.7181 0ZM18.7097 14.7181C18.7097 16.9568 16.9561 18.7097 14.7181 18.7097H5.28194C3.04387 18.7097 1.29032 16.9561 1.29032 14.7181V5.28194C1.29032 3.04387 3.04387 1.29032 5.28194 1.29032H14.7181C16.9568 1.29032 18.7097 3.04387 18.7097 5.28194V14.7181Z" fill="black"/>
<path d="M16.2897 5.10642C16.0826 4.95481 15.8052 4.94191 15.5839 5.07094C15.3632 5.20062 14.8742 5.26449 14.4819 5.3161C14.4006 5.32707 14.3206 5.33739 14.2432 5.34836C13.6942 4.89287 12.9929 4.63739 12.2697 4.63739C10.6406 4.63739 9.30387 5.89804 9.20903 7.48384C7.73161 7.23481 6.3787 6.46449 5.41999 5.30707C5.27741 5.13416 5.05612 5.04965 4.8329 5.07868C4.61096 5.10965 4.42129 5.25352 4.33161 5.45868C4.29032 5.55287 3.93032 6.43868 3.93032 8.62965C3.93032 10.5271 5.42774 11.9213 6.45483 12.6548C5.75225 12.9742 4.94258 13.0916 4.17354 13.0064C3.8729 12.9742 3.59161 13.1509 3.49225 13.4342C3.3929 13.718 3.50258 14.0329 3.75677 14.1935C4.96967 14.9587 6.37161 15.3632 7.81161 15.3632C12.4361 15.3632 15.2348 11.7303 15.3387 8.14836C15.4716 7.95545 15.7252 7.57997 16.1535 6.92126C16.3252 6.6561 16.469 6.08449 16.5394 5.76771C16.5955 5.51739 16.4968 5.25739 16.2897 5.10642ZM14.1748 7.56191C14.0955 7.67158 14.0523 7.80449 14.0523 7.93997C14.0523 10.4864 12.1161 14.0729 7.81225 14.0729C7.42322 14.0729 7.03741 14.0374 6.65935 13.9677C7.16387 13.7767 7.64064 13.5103 8.07871 13.1729C8.25419 13.038 8.34774 12.8213 8.32709 12.6013C8.30645 12.3813 8.17419 12.1864 7.97612 12.0864C7.94838 12.0722 5.22129 10.638 5.22129 8.63029C5.22129 7.95739 5.25741 7.42836 5.30516 7.02578C6.57161 8.1161 8.18322 8.76836 9.87935 8.85223C9.89225 8.85287 9.9058 8.85352 9.91806 8.85287C10.2935 8.84191 10.5697 8.56642 10.5697 8.20771C10.5697 8.11868 10.5516 8.03416 10.5187 7.95674C10.5026 7.85997 10.4942 7.76255 10.4942 7.66513C10.4942 6.70707 11.2903 5.92771 12.2697 5.92771C12.7613 5.92771 13.2342 6.129 13.5677 6.47933C13.72 6.63804 13.9426 6.70965 14.1574 6.66771C14.3039 6.63997 14.4729 6.61804 14.6503 6.59481C14.7135 6.58642 14.7774 6.57804 14.8426 6.569C14.3581 7.30707 14.1832 7.55029 14.1748 7.56191Z" fill="black"/>
</svg>
